<svg xmlns="http://www.w3.org/2000/svg" width="400" height="32" viewBox="0 0 400 32"><defs><clipPath id="vle5a"><path fill="#fff" d="M15.5 0h369c8.56 0 15.5 6.94 15.5 15.5v1c0 8.56-6.94 15.5-15.5 15.5h-369C6.94 32 0 25.06 0 16.5v-1C0 6.94 6.94 0 15.5 0z"/></clipPath></defs><g><g><path fill="#fff" d="M15.5 0h369c8.56 0 15.5 6.94 15.5 15.5v1c0 8.56-6.94 15.5-15.5 15.5h-369C6.94 32 0 25.06 0 16.5v-1C0 6.94 6.94 0 15.5 0z"/><path fill="none" stroke="#8c97b2" stroke-linecap="round" stroke-linejoin="round" stroke-miterlimit="50" stroke-opacity=".4" stroke-width="2" d="M15.5 0h369c8.56 0 15.5 6.94 15.5 15.5v1c0 8.56-6.94 15.5-15.5 15.5h-369C6.94 32 0 25.06 0 16.5v-1C0 6.94 6.94 0 15.5 0z" clip-path="url(&quot;#vle5a&quot;)"/></g></g></svg>